<svg width="20" height="20" viewBox="0 0 20 20" fill="none" xmlns="http://www.w3.org/2000/svg">
<path d="M13.3327 10.125H6.66602C6.63587 10.125 6.60459 10.1127 6.57894 10.0871C6.5533 10.0614 6.54102 10.0301 6.54102 10C6.54102 9.96985 6.5533 9.93857 6.57894 9.91293C6.60459 9.88728 6.63587 9.875 6.66602 9.875H13.3327C13.3628 9.875 13.3941 9.88728 13.4198 9.91293C13.4454 9.93857 13.4577 9.96985 13.4577 10C13.4577 10.0301 13.4454 10.0614 13.4198 10.0871C13.3941 10.1127 13.3628 10.125 13.3327 10.125Z" fill="white" stroke="white"/>
<path d="M10 13.4584C9.96985 13.4584 9.93857 13.4461 9.91293 13.4205C9.88728 13.3948 9.875 13.3636 9.875 13.3334V6.66675C9.875 6.6366 9.88728 6.60532 9.91293 6.57968C9.93857 6.55403 9.96985 6.54175 10 6.54175C10.0301 6.54175 10.0614 6.55403 10.0871 6.57968C10.1127 6.60532 10.125 6.6366 10.125 6.66675V13.3334C10.125 13.3636 10.1127 13.3948 10.0871 13.4205C10.0614 13.4461 10.0301 13.4584 10 13.4584Z" fill="white" stroke="white"/>
<path d="M12.4993 18.9584H7.49935C2.97435 18.9584 1.04102 17.0251 1.04102 12.5001V7.50008C1.04102 2.97508 2.97435 1.04175 7.49935 1.04175H12.4993C17.0243 1.04175 18.9577 2.97508 18.9577 7.50008V12.5001C18.9577 17.0251 17.0243 18.9584 12.4993 18.9584ZM7.49935 2.29175C3.65768 2.29175 2.29102 3.65841 2.29102 7.50008V12.5001C2.29102 16.3417 3.65768 17.7084 7.49935 17.7084H12.4993C16.341 17.7084 17.7077 16.3417 17.7077 12.5001V7.50008C17.7077 3.65841 16.341 2.29175 12.4993 2.29175H7.49935Z" fill="white"/>
</svg>
