<svg width="20" height="21" viewBox="0 0 20 21" fill="none" xmlns="http://www.w3.org/2000/svg">
<path opacity="0.4" d="M3.05859 2.61017V12.5852C3.05859 13.4018 3.44193 14.1768 4.10026 14.6685L8.44192 17.9185C9.36692 18.6102 10.6419 18.6102 11.5669 17.9185L15.9086 14.6685C16.5669 14.1768 16.9502 13.4018 16.9502 12.5852V2.61017H3.05859Z" fill="#212529"/>
<path d="M18.3327 3.23517H1.66602C1.32435 3.23517 1.04102 2.95184 1.04102 2.61017C1.04102 2.2685 1.32435 1.98517 1.66602 1.98517H18.3327C18.6744 1.98517 18.9577 2.2685 18.9577 2.61017C18.9577 2.95184 18.6744 3.23517 18.3327 3.23517Z" fill="#212529"/>
<path d="M13.3327 7.81854H6.66602C6.32435 7.81854 6.04102 7.53521 6.04102 7.19354C6.04102 6.85188 6.32435 6.56854 6.66602 6.56854H13.3327C13.6743 6.56854 13.9577 6.85188 13.9577 7.19354C13.9577 7.53521 13.6743 7.81854 13.3327 7.81854Z" fill="#212529"/>
<path d="M13.3327 11.9852H6.66602C6.32435 11.9852 6.04102 11.7018 6.04102 11.3602C6.04102 11.0185 6.32435 10.7352 6.66602 10.7352H13.3327C13.6743 10.7352 13.9577 11.0185 13.9577 11.3602C13.9577 11.7018 13.6743 11.9852 13.3327 11.9852Z" fill="#212529"/>
</svg>
