<svg width="20" height="21" viewBox="0 0 20 21" fill="none" xmlns="http://www.w3.org/2000/svg">
<path d="M9.16732 17.1102V3.94351C9.16732 2.69351 8.63399 2.19351 7.30899 2.19351H3.94232C2.61732 2.19351 2.08398 2.69351 2.08398 3.94351V17.1102C2.08398 18.3602 2.61732 18.8602 3.94232 18.8602H7.30899C8.63399 18.8602 9.16732 18.3602 9.16732 17.1102Z" fill="#004822"/>
<path opacity="0.4" d="M17.9173 16.8935V13.3269C17.9173 12.2435 17.084 11.3602 16.059 11.3602H12.6923C11.6673 11.3602 10.834 12.2435 10.834 13.3269V16.8935C10.834 17.9769 11.6673 18.8602 12.6923 18.8602H16.059C17.084 18.8602 17.9173 17.9769 17.9173 16.8935Z" fill="#4D5154"/>
<path opacity="0.4" d="M17.9173 7.72685V4.16018C17.9173 3.07685 17.084 2.19351 16.059 2.19351H12.6923C11.6673 2.19351 10.834 3.07685 10.834 4.16018V7.72685C10.834 8.81018 11.6673 9.69351 12.6923 9.69351H16.059C17.084 9.69351 17.9173 8.81018 17.9173 7.72685Z" fill="#4D5154"/>
</svg>
