<svg width="25" height="24" viewBox="0 0 25 24" fill="none" xmlns="http://www.w3.org/2000/svg">
<path d="M15.5872 12C15.5872 13.98 13.9872 15.58 12.0072 15.58C10.0272 15.58 8.42725 13.98 8.42725 12C8.42725 10.02 10.0272 8.42004 12.0072 8.42004C13.9872 8.42004 15.5872 10.02 15.5872 12Z" stroke="#292D32" stroke-width="1.5" stroke-linecap="round" stroke-linejoin="round"/>
<path d="M12.0072 20.27C15.5372 20.27 18.8272 18.19 21.1172 14.59C22.0172 13.18 22.0172 10.81 21.1172 9.39997C18.8272 5.79997 15.5372 3.71997 12.0072 3.71997C8.47717 3.71997 5.18717 5.79997 2.89717 9.39997C1.99717 10.81 1.99717 13.18 2.89717 14.59C5.18717 18.19 8.47717 20.27 12.0072 20.27Z" stroke="#292D32" stroke-width="1.5" stroke-linecap="round" stroke-linejoin="round"/>
</svg>
