<svg width="25" height="24" viewBox="0 0 25 24" fill="none" xmlns="http://www.w3.org/2000/svg">
<path opacity="0.4" d="M21.2573 9.15005C18.9473 5.52005 15.5673 3.43005 12.0073 3.43005C10.2273 3.43005 8.49732 3.95005 6.91732 4.92005C5.33732 5.90005 3.91732 7.33005 2.75732 9.15005C1.75732 10.7201 1.75732 13.2701 2.75732 14.8401C5.06732 18.4801 8.44732 20.5601 12.0073 20.5601C13.7873 20.5601 15.5173 20.0401 17.0973 19.0701C18.6773 18.0901 20.0973 16.6601 21.2573 14.8401C22.2573 13.2801 22.2573 10.7201 21.2573 9.15005ZM12.0073 16.0401C9.76732 16.0401 7.96732 14.2301 7.96732 12.0001C7.96732 9.77005 9.76732 7.96005 12.0073 7.96005C14.2473 7.96005 16.0473 9.77005 16.0473 12.0001C16.0473 14.2301 14.2473 16.0401 12.0073 16.0401Z" fill="#292D32"/>
<path d="M12.0072 9.14001C10.4372 9.14001 9.15723 10.42 9.15723 12C9.15723 13.57 10.4372 14.85 12.0072 14.85C13.5772 14.85 14.8672 13.57 14.8672 12C14.8672 10.43 13.5772 9.14001 12.0072 9.14001Z" fill="#292D32"/>
</svg>
