<svg width="40" height="40" viewBox="0 0 40 40" fill="none" xmlns="http://www.w3.org/2000/svg">
<path opacity="0.4" d="M28.334 30.7167H21.6673L14.2506 35.6501C13.1506 36.3834 11.6673 35.6001 11.6673 34.2667V30.7167C6.66732 30.7167 3.33398 27.3834 3.33398 22.3834V12.3834C3.33398 7.38338 6.66732 4.05005 11.6673 4.05005H28.334C33.334 4.05005 36.6673 7.38338 36.6673 12.3834V22.3834C36.6673 27.3834 33.334 30.7167 28.334 30.7167Z" fill="#006C33"/>
<path d="M19.999 20.1834C19.3157 20.1834 18.749 19.6167 18.749 18.9334V18.5834C18.749 16.6501 20.1657 15.7001 20.699 15.3334C21.3157 14.9167 21.5157 14.6334 21.5157 14.2001C21.5157 13.3667 20.8324 12.6833 19.999 12.6833C19.1657 12.6833 18.4824 13.3667 18.4824 14.2001C18.4824 14.8834 17.9158 15.4501 17.2324 15.4501C16.5491 15.4501 15.9824 14.8834 15.9824 14.2001C15.9824 11.9834 17.7824 10.1833 19.999 10.1833C22.2157 10.1833 24.0157 11.9834 24.0157 14.2001C24.0157 16.1001 22.6157 17.05 22.0991 17.4C21.4491 17.8334 21.249 18.1167 21.249 18.5834V18.9334C21.249 19.6334 20.6824 20.1834 19.999 20.1834Z" fill="#006C33"/>
<path d="M20 24.3333C19.3 24.3333 18.75 23.7666 18.75 23.0833C18.75 22.3999 19.3167 21.8333 20 21.8333C20.6833 21.8333 21.25 22.3999 21.25 23.0833C21.25 23.7666 20.7 24.3333 20 24.3333Z" fill="#006C33"/>
</svg>
