<svg width="20" height="21" viewBox="0 0 20 21" fill="none" xmlns="http://www.w3.org/2000/svg">
<path opacity="0.4" d="M12.9008 2.19351H6.27578C3.39245 2.19351 1.67578 3.91017 1.67578 6.7935V13.4185C1.67578 16.3018 3.40078 18.0185 6.27578 18.0185H12.9008C15.7841 18.0185 17.5008 16.3018 17.5008 13.4185V6.7935C17.5008 3.91017 15.7758 2.19351 12.9008 2.19351Z" fill="#4D5154"/>
<path d="M18.3007 16.2268L16.9424 16.6852C16.5674 16.8102 16.2674 17.1019 16.1424 17.4852L15.684 18.8435C15.2924 20.0185 13.6424 19.9935 13.2757 18.8185L11.734 13.8602C11.434 12.8768 12.3424 11.9602 13.3174 12.2685L18.284 13.8102C19.4507 14.1769 19.4674 15.8352 18.3007 16.2268Z" fill="#4D5154"/>
</svg>
