<svg width="20" height="21" viewBox="0 0 20 21" fill="none" xmlns="http://www.w3.org/2000/svg">
<path opacity="0.4" d="M9.13398 2.24351L4.55065 3.96017C3.67565 4.29351 2.95898 5.32684 2.95898 6.26851V13.0185C2.95898 13.6935 3.40065 14.5852 3.94232 14.9852L8.52565 18.4102C9.33398 19.0185 10.659 19.0185 11.4673 18.4102L16.0507 14.9852C16.5923 14.5768 17.034 13.6935 17.034 13.0185V6.26851C17.034 5.33517 16.3173 4.29351 15.4423 3.96851L10.859 2.25184C10.3923 2.06851 9.60898 2.06851 9.13398 2.24351Z" fill="#212529"/>
<path d="M8.88255 12.3852C8.72422 12.3852 8.56589 12.3268 8.44089 12.2018L7.09922 10.8602C6.85755 10.6185 6.85755 10.2185 7.09922 9.97684C7.34089 9.73518 7.74088 9.73518 7.98255 9.97684L8.88255 10.8768L12.0242 7.73517C12.2659 7.49351 12.6659 7.49351 12.9076 7.73517C13.1492 7.97684 13.1492 8.37684 12.9076 8.61851L9.32422 12.2018C9.19922 12.3268 9.04088 12.3852 8.88255 12.3852Z" fill="#212529"/>
</svg>
